<svg width="62" height="52" viewBox="0 0 62 52" fill="none" xmlns="http://www.w3.org/2000/svg">
<path d="M0 0H49.8191C56.14 0 61.2641 5.12407 61.2641 11.4449V40.3939C61.2641 46.7148 56.14 51.8388 49.8191 51.8388H0V0Z" fill="#E55812"/>
<path d="M40.8028 37.1798C41.1036 37.4806 41.5913 37.4806 41.8921 37.1798C42.1929 36.879 42.1929 36.3913 41.8921 36.0905L41.3474 36.6352L40.8028 37.1798ZM37.4961 23.7975H36.7259C36.7259 28.3351 33.0474 32.0136 28.5098 32.0136V32.7839V33.5541C33.8982 33.5541 38.2664 29.186 38.2664 23.7975H37.4961ZM28.5098 32.7839V32.0136C23.9722 32.0136 20.2937 28.3351 20.2937 23.7975H19.5234H18.7532C18.7532 29.186 23.1214 33.5541 28.5098 33.5541V32.7839ZM19.5234 23.7975H20.2937C20.2937 19.2599 23.9722 15.5814 28.5098 15.5814V14.8112V14.0409C23.1214 14.0409 18.7532 18.4091 18.7532 23.7975H19.5234ZM28.5098 14.8112V15.5814C33.0474 15.5814 36.7259 19.2599 36.7259 23.7975H37.4961H38.2664C38.2664 18.4091 33.8982 14.0409 28.5098 14.0409V14.8112ZM34.9286 30.2163L34.3839 30.761L40.8028 37.1798L41.3474 36.6352L41.8921 36.0905L35.4733 29.6717L34.9286 30.2163Z" fill="white"/>
</svg>
